<svg width="108" height="108" viewBox="0 0 108 108" fill="none" xmlns="http://www.w3.org/2000/svg">
<g filter="url(#filter0_d_118_113)">
<rect x="30" y="10" width="48" height="48" rx="24" fill="white"/>
</g>
<rect x="38" y="18" width="32" height="32" rx="16" fill="white"/>
<g clip-path="url(#clip0_118_113)">
<path d="M58.651 28.9607C58.4369 28.9607 58.2626 29.135 58.2626 29.3491C58.2626 29.5633 58.4369 29.7376 58.651 29.7376C58.8652 29.7376 59.0394 29.5633 59.0394 29.3491C59.0394 29.1349 58.8652 28.9607 58.651 28.9607Z" fill="#151547"/>
<path d="M54 30.5564C52.1012 30.5564 50.5564 32.1012 50.5564 34C50.5564 35.8988 52.1012 37.4437 54 37.4437C55.8989 37.4437 57.4437 35.8989 57.4437 34.0001C57.4437 32.1012 55.8989 30.5564 54 30.5564Z" fill="#151547"/>
<path d="M57.6138 26H50.3862C47.9676 26 46 27.9676 46 30.3862V37.6138C46 40.0324 47.9676 42 50.3862 42H57.6138C60.0324 42 62 40.0324 62 37.6138V30.3862C62 27.9676 60.0324 26 57.6138 26ZM54 38.3885C51.5802 38.3885 49.6115 36.4198 49.6115 34C49.6115 31.5802 51.5802 29.6116 54 29.6116C56.4198 29.6116 58.3885 31.5802 58.3885 34C58.3885 36.4198 56.4198 38.3885 54 38.3885ZM58.651 30.6824C57.9158 30.6824 57.3177 30.0842 57.3177 29.3491C57.3177 28.6139 57.9158 28.0157 58.651 28.0157C59.3862 28.0157 59.9843 28.6138 59.9843 29.349C59.9843 30.0842 59.3862 30.6824 58.651 30.6824Z" fill="#151547"/>
</g>
<defs>
<filter id="filter0_d_118_113" x="0" y="0" width="108" height="108" filterUnits="userSpaceOnUse" color-interpolation-filters="sRGB">
<feFlood flood-opacity="0" result="BackgroundImageFix"/>
<feColorMatrix in="SourceAlpha" type="matrix" values="0 0 0 0 0 0 0 0 0 0 0 0 0 0 0 0 0 0 127 0" result="hardAlpha"/>
<feOffset dy="20"/>
<feGaussianBlur stdDeviation="15"/>
<feComposite in2="hardAlpha" operator="out"/>
<feColorMatrix type="matrix" values="0 0 0 0 0 0 0 0 0 0 0 0 0 0 0 0 0 0 0.1 0"/>
<feBlend mode="normal" in2="BackgroundImageFix" result="effect1_dropShadow_118_113"/>
<feBlend mode="normal" in="SourceGraphic" in2="effect1_dropShadow_118_113" result="shape"/>
</filter>
<clipPath id="clip0_118_113">
<rect width="16" height="16" fill="white" transform="translate(46 26)"/>
</clipPath>
</defs>
</svg>
